<?xml version="1.0" encoding="UTF-8" standalone="no"?>
<!DOCTYPE svg PUBLIC "-//W3C//DTD SVG 1.1//EN"
 "http://www.w3.org/Graphics/SVG/1.1/DTD/svg11.dtd">
<!-- Generated by graphviz version 2.47.0 (20210316.0004)
 -->
<!-- Title: dependencies Pages: 1 -->
<svg width="1115pt" height="284pt"
 viewBox="0.00 0.00 1115.00 284.00" xmlns="http://www.w3.org/2000/svg" xmlns:xlink="http://www.w3.org/1999/xlink">
<g id="graph0" class="graph" transform="scale(1 1) rotate(0) translate(4 280)">
<title>dependencies</title>
<polygon fill="white" stroke="transparent" points="-4,4 -4,-280 1111,-280 1111,4 -4,4"/>
<text text-anchor="start" x="532.51" y="-42.4" font-family="Times-12" font-weight="bold" font-size="14.00">Legend</text>
<polygon fill="#ffffb3" stroke="transparent" points="319.5,-10 319.5,-30 339.5,-30 339.5,-10 319.5,-10"/>
<text text-anchor="start" x="343.13" y="-15.4" font-family="Times-12" font-size="14.00"> &#160;Declarations</text>
<polygon fill="#8dd3c7" stroke="transparent" points="432.5,-10 432.5,-30 452.5,-30 452.5,-10 432.5,-10"/>
<text text-anchor="start" x="456.23" y="-15.4" font-family="Times-12" font-size="14.00"> &#160;Module</text>
<polygon fill="#80b1d3" stroke="transparent" points="518.5,-10 518.5,-30 538.5,-30 538.5,-10 518.5,-10"/>
<text text-anchor="start" x="542.28" y="-15.4" font-family="Times-12" font-size="14.00"> &#160;Bootstrap</text>
<polygon fill="#fdb462" stroke="transparent" points="615.5,-10 615.5,-30 635.5,-30 635.5,-10 615.5,-10"/>
<text text-anchor="start" x="639.17" y="-15.4" font-family="Times-12" font-size="14.00"> &#160;Providers</text>
<polygon fill="#fb8072" stroke="transparent" points="711.5,-10 711.5,-30 731.5,-30 731.5,-10 711.5,-10"/>
<text text-anchor="start" x="735.23" y="-15.4" font-family="Times-12" font-size="14.00"> &#160;Exports</text>
<g id="clust1" class="cluster">
<title>cluster_AppModule</title>
<polygon fill="none" stroke="black" stroke-dasharray="1,5" points="8,-70 8,-268 1099,-268 1099,-70 8,-70"/>
</g>
<g id="clust6" class="cluster">
<title>cluster_AppModule_imports</title>
<polygon fill="none" stroke="black" points="572,-78 572,-130 1091,-130 1091,-78 572,-78"/>
</g>
<g id="clust8" class="cluster">
<title>cluster_AppModule_bootstrap</title>
<polygon fill="none" stroke="black" points="500,-208 500,-260 624,-260 624,-208 500,-208"/>
</g>
<g id="clust9" class="cluster">
<title>cluster_AppModule_providers</title>
<polygon fill="none" stroke="black" points="402,-78 402,-130 564,-130 564,-78 402,-78"/>
</g>
<g id="clust2" class="cluster">
<title>cluster_AppModule_declarations</title>
<polygon fill="none" stroke="black" points="16,-78 16,-130 394,-130 394,-78 16,-78"/>
</g>
<!-- AppComponent -->
<g id="node1" class="node">
<title>AppComponent</title>
<polygon fill="#ffffb3" stroke="black" points="385.94,-122 280.06,-122 280.06,-86 385.94,-86 385.94,-122"/>
<text text-anchor="middle" x="333" y="-99.8" font-family="Times,serif" font-size="14.00">AppComponent</text>
</g>
<!-- AppModule -->
<g id="node4" class="node">
<title>AppModule</title>
<polygon fill="#8dd3c7" stroke="black" points="603.66,-187 600.66,-191 579.66,-191 576.66,-187 520.34,-187 520.34,-151 603.66,-151 603.66,-187"/>
<text text-anchor="middle" x="562" y="-164.8" font-family="Times,serif" font-size="14.00">AppModule</text>
</g>
<!-- AppComponent&#45;&gt;AppModule -->
<g id="edge1" class="edge">
<title>AppComponent&#45;&gt;AppModule</title>
<path fill="none" stroke="black" d="M333,-122.03C333,-138.4 333,-160 333,-160 333,-160 510.26,-160 510.26,-160"/>
<polygon fill="black" stroke="black" points="510.26,-163.5 520.26,-160 510.26,-156.5 510.26,-163.5"/>
</g>
<!-- HomeComponent -->
<g id="node2" class="node">
<title>HomeComponent</title>
<polygon fill="#ffffb3" stroke="black" points="262.55,-122 147.45,-122 147.45,-86 262.55,-86 262.55,-122"/>
<text text-anchor="middle" x="205" y="-99.8" font-family="Times,serif" font-size="14.00">HomeComponent</text>
</g>
<!-- HomeComponent&#45;&gt;AppModule -->
<g id="edge2" class="edge">
<title>HomeComponent&#45;&gt;AppModule</title>
<path fill="none" stroke="black" d="M205,-122.11C205,-141.34 205,-169 205,-169 205,-169 510,-169 510,-169"/>
<polygon fill="black" stroke="black" points="510,-172.5 520,-169 510,-165.5 510,-172.5"/>
</g>
<!-- TestComponent -->
<g id="node3" class="node">
<title>TestComponent</title>
<polygon fill="#ffffb3" stroke="black" points="129.94,-122 24.06,-122 24.06,-86 129.94,-86 129.94,-122"/>
<text text-anchor="middle" x="77" y="-99.8" font-family="Times,serif" font-size="14.00">TestComponent</text>
</g>
<!-- TestComponent&#45;&gt;AppModule -->
<g id="edge3" class="edge">
<title>TestComponent&#45;&gt;AppModule</title>
<path fill="none" stroke="black" d="M77,-122.29C77,-144.21 77,-178 77,-178 77,-178 510.23,-178 510.23,-178"/>
<polygon fill="black" stroke="black" points="510.23,-181.5 520.23,-178 510.23,-174.5 510.23,-181.5"/>
</g>
<!-- AppComponent  -->
<g id="node9" class="node">
<title>AppComponent </title>
<polygon fill="#80b1d3" stroke="black" points="616.44,-252 507.56,-252 507.56,-216 616.44,-216 616.44,-252"/>
<text text-anchor="middle" x="562" y="-229.8" font-family="Times,serif" font-size="14.00">AppComponent </text>
</g>
<!-- AppModule&#45;&gt;AppComponent  -->
<g id="edge8" class="edge">
<title>AppModule&#45;&gt;AppComponent </title>
<path fill="none" stroke="black" stroke-dasharray="1,5" d="M562,-187.11C562,-187.11 562,-205.99 562,-205.99"/>
<polygon fill="black" stroke="black" points="558.5,-205.99 562,-215.99 565.5,-205.99 558.5,-205.99"/>
</g>
<!-- ApiModule -->
<g id="node5" class="node">
<title>ApiModule</title>
<polygon fill="#8dd3c7" stroke="black" points="1083.05,-122 1080.05,-126 1059.05,-126 1056.05,-122 1002.95,-122 1002.95,-86 1083.05,-86 1083.05,-122"/>
<text text-anchor="middle" x="1043" y="-99.8" font-family="Times,serif" font-size="14.00">ApiModule</text>
</g>
<!-- ApiModule&#45;&gt;AppModule -->
<g id="edge4" class="edge">
<title>ApiModule&#45;&gt;AppModule</title>
<path fill="none" stroke="black" d="M1043,-122.29C1043,-144.21 1043,-178 1043,-178 1043,-178 613.84,-178 613.84,-178"/>
<polygon fill="black" stroke="black" points="613.84,-174.5 603.84,-178 613.84,-181.5 613.84,-174.5"/>
</g>
<!-- AppRoutingModule -->
<g id="node6" class="node">
<title>AppRoutingModule</title>
<polygon fill="#8dd3c7" stroke="black" points="984.27,-122 981.27,-126 960.27,-126 957.27,-122 855.73,-122 855.73,-86 984.27,-86 984.27,-122"/>
<text text-anchor="middle" x="920" y="-99.8" font-family="Times,serif" font-size="14.00">AppRoutingModule</text>
</g>
<!-- AppRoutingModule&#45;&gt;AppModule -->
<g id="edge5" class="edge">
<title>AppRoutingModule&#45;&gt;AppModule</title>
<path fill="none" stroke="black" d="M920,-122.11C920,-141.34 920,-169 920,-169 920,-169 613.77,-169 613.77,-169"/>
<polygon fill="black" stroke="black" points="613.77,-165.5 603.77,-169 613.77,-172.5 613.77,-165.5"/>
</g>
<!-- FooterComponent -->
<g id="node7" class="node">
<title>FooterComponent</title>
<polygon fill="#8dd3c7" stroke="black" points="837.88,-122 834.88,-126 813.88,-126 810.88,-122 720.12,-122 720.12,-86 837.88,-86 837.88,-122"/>
<text text-anchor="middle" x="779" y="-99.8" font-family="Times,serif" font-size="14.00">FooterComponent</text>
</g>
<!-- FooterComponent&#45;&gt;AppModule -->
<g id="edge6" class="edge">
<title>FooterComponent&#45;&gt;AppModule</title>
<path fill="none" stroke="black" d="M779,-122.03C779,-138.4 779,-160 779,-160 779,-160 613.84,-160 613.84,-160"/>
<polygon fill="black" stroke="black" points="613.84,-156.5 603.84,-160 613.84,-163.5 613.84,-156.5"/>
</g>
<!-- HeaderComponent -->
<g id="node8" class="node">
<title>HeaderComponent</title>
<polygon fill="#8dd3c7" stroke="black" points="701.74,-122 698.74,-126 677.74,-126 674.74,-122 580.26,-122 580.26,-86 701.74,-86 701.74,-122"/>
<text text-anchor="middle" x="641" y="-99.8" font-family="Times,serif" font-size="14.00">HeaderComponent</text>
</g>
<!-- HeaderComponent&#45;&gt;AppModule -->
<g id="edge7" class="edge">
<title>HeaderComponent&#45;&gt;AppModule</title>
<path fill="none" stroke="black" d="M591.98,-122.11C591.98,-122.11 591.98,-140.99 591.98,-140.99"/>
<polygon fill="black" stroke="black" points="588.48,-140.99 591.98,-150.99 595.48,-140.99 588.48,-140.99"/>
</g>
<!-- AuthInterceptor -->
<g id="node10" class="node">
<title>AuthInterceptor</title>
<ellipse fill="#fdb462" stroke="black" cx="483" cy="-104" rx="72.91" ry="18"/>
<text text-anchor="middle" x="483" y="-99.8" font-family="Times,serif" font-size="14.00">AuthInterceptor</text>
</g>
<!-- AuthInterceptor&#45;&gt;AppModule -->
<g id="edge9" class="edge">
<title>AuthInterceptor&#45;&gt;AppModule</title>
<path fill="none" stroke="black" d="M537.94,-115.92C537.94,-115.92 537.94,-140.77 537.94,-140.77"/>
<polygon fill="black" stroke="black" points="534.44,-140.77 537.94,-150.77 541.44,-140.77 534.44,-140.77"/>
</g>
</g>
</svg>
