<?xml version="1.0" encoding="UTF-8" standalone="no"?>
<!DOCTYPE svg PUBLIC "-//W3C//DTD SVG 1.1//EN"
 "http://www.w3.org/Graphics/SVG/1.1/DTD/svg11.dtd">
<!-- Generated by graphviz version 2.47.0 (20210316.0004)
 -->
<!-- Title: dependencies Pages: 1 -->
<svg width="1415pt" height="284pt"
 viewBox="0.00 0.00 1415.00 284.00" xmlns="http://www.w3.org/2000/svg" xmlns:xlink="http://www.w3.org/1999/xlink">
<g id="graph0" class="graph" transform="scale(1 1) rotate(0) translate(4 280)">
<title>dependencies</title>
<polygon fill="white" stroke="transparent" points="-4,4 -4,-280 1411,-280 1411,4 -4,4"/>
<text text-anchor="start" x="682.51" y="-42.4" font-family="Times-12" font-weight="bold" font-size="14.00">Legend</text>
<polygon fill="#ffffb3" stroke="transparent" points="469.5,-10 469.5,-30 489.5,-30 489.5,-10 469.5,-10"/>
<text text-anchor="start" x="493.13" y="-15.4" font-family="Times-12" font-size="14.00"> &#160;Declarations</text>
<polygon fill="#8dd3c7" stroke="transparent" points="582.5,-10 582.5,-30 602.5,-30 602.5,-10 582.5,-10"/>
<text text-anchor="start" x="606.23" y="-15.4" font-family="Times-12" font-size="14.00"> &#160;Module</text>
<polygon fill="#80b1d3" stroke="transparent" points="668.5,-10 668.5,-30 688.5,-30 688.5,-10 668.5,-10"/>
<text text-anchor="start" x="692.28" y="-15.4" font-family="Times-12" font-size="14.00"> &#160;Bootstrap</text>
<polygon fill="#fdb462" stroke="transparent" points="765.5,-10 765.5,-30 785.5,-30 785.5,-10 765.5,-10"/>
<text text-anchor="start" x="789.17" y="-15.4" font-family="Times-12" font-size="14.00"> &#160;Providers</text>
<polygon fill="#fb8072" stroke="transparent" points="861.5,-10 861.5,-30 881.5,-30 881.5,-10 861.5,-10"/>
<text text-anchor="start" x="885.23" y="-15.4" font-family="Times-12" font-size="14.00"> &#160;Exports</text>
<g id="clust7" class="cluster">
<title>cluster_AppModule</title>
<polygon fill="none" stroke="black" stroke-dasharray="1,5" points="8,-70 8,-268 1099,-268 1099,-70 8,-70"/>
</g>
<g id="clust8" class="cluster">
<title>cluster_AppModule_declarations</title>
<polygon fill="none" stroke="black" points="713,-78 713,-130 1091,-130 1091,-78 713,-78"/>
</g>
<g id="clust12" class="cluster">
<title>cluster_AppModule_imports</title>
<polygon fill="none" stroke="black" points="186,-78 186,-130 705,-130 705,-78 186,-78"/>
</g>
<g id="clust14" class="cluster">
<title>cluster_AppModule_bootstrap</title>
<polygon fill="none" stroke="black" points="533,-208 533,-260 657,-260 657,-208 533,-208"/>
</g>
<g id="clust15" class="cluster">
<title>cluster_AppModule_providers</title>
<polygon fill="none" stroke="black" points="16,-78 16,-130 178,-130 178,-78 16,-78"/>
</g>
<g id="clust22" class="cluster">
<title>cluster_AuthModule</title>
<polygon fill="none" stroke="black" stroke-dasharray="1,5" points="1107,-70 1107,-195 1399,-195 1399,-70 1107,-70"/>
</g>
<g id="clust24" class="cluster">
<title>cluster_AuthModule_imports</title>
<polygon fill="none" stroke="black" points="1115,-78 1115,-130 1391,-130 1391,-78 1115,-78"/>
</g>
<!-- AppComponent -->
<g id="node1" class="node">
<title>AppComponent</title>
<polygon fill="#ffffb3" stroke="black" points="1082.94,-122 977.06,-122 977.06,-86 1082.94,-86 1082.94,-122"/>
<text text-anchor="middle" x="1030" y="-99.8" font-family="Times,serif" font-size="14.00">AppComponent</text>
</g>
<!-- AppModule -->
<g id="node4" class="node">
<title>AppModule</title>
<polygon fill="#8dd3c7" stroke="black" points="636.66,-187 633.66,-191 612.66,-191 609.66,-187 553.34,-187 553.34,-151 636.66,-151 636.66,-187"/>
<text text-anchor="middle" x="595" y="-164.8" font-family="Times,serif" font-size="14.00">AppModule</text>
</g>
<!-- AppComponent&#45;&gt;AppModule -->
<g id="edge1" class="edge">
<title>AppComponent&#45;&gt;AppModule</title>
<path fill="none" stroke="black" d="M1030,-122.29C1030,-144.21 1030,-178 1030,-178 1030,-178 646.71,-178 646.71,-178"/>
<polygon fill="black" stroke="black" points="646.71,-174.5 636.71,-178 646.71,-181.5 646.71,-174.5"/>
</g>
<!-- HomeComponent -->
<g id="node2" class="node">
<title>HomeComponent</title>
<polygon fill="#ffffb3" stroke="black" points="959.55,-122 844.45,-122 844.45,-86 959.55,-86 959.55,-122"/>
<text text-anchor="middle" x="902" y="-99.8" font-family="Times,serif" font-size="14.00">HomeComponent</text>
</g>
<!-- HomeComponent&#45;&gt;AppModule -->
<g id="edge2" class="edge">
<title>HomeComponent&#45;&gt;AppModule</title>
<path fill="none" stroke="black" d="M902,-122.11C902,-141.34 902,-169 902,-169 902,-169 646.72,-169 646.72,-169"/>
<polygon fill="black" stroke="black" points="646.72,-165.5 636.72,-169 646.72,-172.5 646.72,-165.5"/>
</g>
<!-- TestComponent -->
<g id="node3" class="node">
<title>TestComponent</title>
<polygon fill="#ffffb3" stroke="black" points="826.94,-122 721.06,-122 721.06,-86 826.94,-86 826.94,-122"/>
<text text-anchor="middle" x="774" y="-99.8" font-family="Times,serif" font-size="14.00">TestComponent</text>
</g>
<!-- TestComponent&#45;&gt;AppModule -->
<g id="edge3" class="edge">
<title>TestComponent&#45;&gt;AppModule</title>
<path fill="none" stroke="black" d="M774,-122.03C774,-138.4 774,-160 774,-160 774,-160 646.97,-160 646.97,-160"/>
<polygon fill="black" stroke="black" points="646.97,-156.5 636.97,-160 646.97,-163.5 646.97,-156.5"/>
</g>
<!-- AppComponent  -->
<g id="node9" class="node">
<title>AppComponent </title>
<polygon fill="#80b1d3" stroke="black" points="649.44,-252 540.56,-252 540.56,-216 649.44,-216 649.44,-252"/>
<text text-anchor="middle" x="595" y="-229.8" font-family="Times,serif" font-size="14.00">AppComponent </text>
</g>
<!-- AppModule&#45;&gt;AppComponent  -->
<g id="edge8" class="edge">
<title>AppModule&#45;&gt;AppComponent </title>
<path fill="none" stroke="black" stroke-dasharray="1,5" d="M595,-187.11C595,-187.11 595,-205.99 595,-205.99"/>
<polygon fill="black" stroke="black" points="591.5,-205.99 595,-215.99 598.5,-205.99 591.5,-205.99"/>
</g>
<!-- ApiModule -->
<g id="node5" class="node">
<title>ApiModule</title>
<polygon fill="#8dd3c7" stroke="black" points="697.05,-122 694.05,-126 673.05,-126 670.05,-122 616.95,-122 616.95,-86 697.05,-86 697.05,-122"/>
<text text-anchor="middle" x="657" y="-99.8" font-family="Times,serif" font-size="14.00">ApiModule</text>
</g>
<!-- ApiModule&#45;&gt;AppModule -->
<g id="edge4" class="edge">
<title>ApiModule&#45;&gt;AppModule</title>
<path fill="none" stroke="black" d="M626.78,-122.11C626.78,-122.11 626.78,-140.99 626.78,-140.99"/>
<polygon fill="black" stroke="black" points="623.28,-140.99 626.78,-150.99 630.28,-140.99 623.28,-140.99"/>
</g>
<!-- AppRoutingModule -->
<g id="node6" class="node">
<title>AppRoutingModule</title>
<polygon fill="#8dd3c7" stroke="black" points="598.27,-122 595.27,-126 574.27,-126 571.27,-122 469.73,-122 469.73,-86 598.27,-86 598.27,-122"/>
<text text-anchor="middle" x="534" y="-99.8" font-family="Times,serif" font-size="14.00">AppRoutingModule</text>
</g>
<!-- AppRoutingModule&#45;&gt;AppModule -->
<g id="edge5" class="edge">
<title>AppRoutingModule&#45;&gt;AppModule</title>
<path fill="none" stroke="black" d="M575.78,-122.11C575.78,-122.11 575.78,-140.99 575.78,-140.99"/>
<polygon fill="black" stroke="black" points="572.28,-140.99 575.78,-150.99 579.28,-140.99 572.28,-140.99"/>
</g>
<!-- FooterComponent -->
<g id="node7" class="node">
<title>FooterComponent</title>
<polygon fill="#8dd3c7" stroke="black" points="451.88,-122 448.88,-126 427.88,-126 424.88,-122 334.12,-122 334.12,-86 451.88,-86 451.88,-122"/>
<text text-anchor="middle" x="393" y="-99.8" font-family="Times,serif" font-size="14.00">FooterComponent</text>
</g>
<!-- FooterComponent&#45;&gt;AppModule -->
<g id="edge6" class="edge">
<title>FooterComponent&#45;&gt;AppModule</title>
<path fill="none" stroke="black" d="M393,-122.03C393,-138.4 393,-160 393,-160 393,-160 543.15,-160 543.15,-160"/>
<polygon fill="black" stroke="black" points="543.15,-163.5 553.15,-160 543.15,-156.5 543.15,-163.5"/>
</g>
<!-- HeaderComponent -->
<g id="node8" class="node">
<title>HeaderComponent</title>
<polygon fill="#8dd3c7" stroke="black" points="315.74,-122 312.74,-126 291.74,-126 288.74,-122 194.26,-122 194.26,-86 315.74,-86 315.74,-122"/>
<text text-anchor="middle" x="255" y="-99.8" font-family="Times,serif" font-size="14.00">HeaderComponent</text>
</g>
<!-- HeaderComponent&#45;&gt;AppModule -->
<g id="edge7" class="edge">
<title>HeaderComponent&#45;&gt;AppModule</title>
<path fill="none" stroke="black" d="M255,-122.11C255,-141.34 255,-169 255,-169 255,-169 543.31,-169 543.31,-169"/>
<polygon fill="black" stroke="black" points="543.31,-172.5 553.31,-169 543.31,-165.5 543.31,-172.5"/>
</g>
<!-- AuthInterceptor -->
<g id="node10" class="node">
<title>AuthInterceptor</title>
<ellipse fill="#fdb462" stroke="black" cx="97" cy="-104" rx="72.91" ry="18"/>
<text text-anchor="middle" x="97" y="-99.8" font-family="Times,serif" font-size="14.00">AuthInterceptor</text>
</g>
<!-- AuthInterceptor&#45;&gt;AppModule -->
<g id="edge9" class="edge">
<title>AuthInterceptor&#45;&gt;AppModule</title>
<path fill="none" stroke="black" d="M97,-122.29C97,-144.21 97,-178 97,-178 97,-178 542.97,-178 542.97,-178"/>
<polygon fill="black" stroke="black" points="542.97,-181.5 552.97,-178 542.97,-174.5 542.97,-181.5"/>
</g>
<!-- LoginComponent -->
<g id="node11" class="node">
<title>LoginComponent</title>
<polygon fill="#8dd3c7" stroke="black" points="1383.28,-122 1380.28,-126 1359.28,-126 1356.28,-122 1268.72,-122 1268.72,-86 1383.28,-86 1383.28,-122"/>
<text text-anchor="middle" x="1326" y="-99.8" font-family="Times,serif" font-size="14.00">LoginComponent</text>
</g>
<!-- AuthModule -->
<g id="node13" class="node">
<title>AuthModule</title>
<polygon fill="#8dd3c7" stroke="black" points="1299.55,-187 1296.55,-191 1275.55,-191 1272.55,-187 1212.45,-187 1212.45,-151 1299.55,-151 1299.55,-187"/>
<text text-anchor="middle" x="1256" y="-164.8" font-family="Times,serif" font-size="14.00">AuthModule</text>
</g>
<!-- LoginComponent&#45;&gt;AuthModule -->
<g id="edge10" class="edge">
<title>LoginComponent&#45;&gt;AuthModule</title>
<path fill="none" stroke="black" d="M1284.19,-122.11C1284.19,-122.11 1284.19,-140.99 1284.19,-140.99"/>
<polygon fill="black" stroke="black" points="1280.69,-140.99 1284.19,-150.99 1287.69,-140.99 1280.69,-140.99"/>
</g>
<!-- RegisterComponent -->
<g id="node12" class="node">
<title>RegisterComponent</title>
<polygon fill="#8dd3c7" stroke="black" points="1250.98,-122 1247.98,-126 1226.98,-126 1223.98,-122 1123.02,-122 1123.02,-86 1250.98,-86 1250.98,-122"/>
<text text-anchor="middle" x="1187" y="-99.8" font-family="Times,serif" font-size="14.00">RegisterComponent</text>
</g>
<!-- RegisterComponent&#45;&gt;AuthModule -->
<g id="edge11" class="edge">
<title>RegisterComponent&#45;&gt;AuthModule</title>
<path fill="none" stroke="black" d="M1231.61,-122.11C1231.61,-122.11 1231.61,-140.99 1231.61,-140.99"/>
<polygon fill="black" stroke="black" points="1228.11,-140.99 1231.61,-150.99 1235.11,-140.99 1228.11,-140.99"/>
</g>
</g>
</svg>
