<?xml version="1.0" encoding="UTF-8" standalone="no"?>
<!DOCTYPE svg PUBLIC "-//W3C//DTD SVG 1.1//EN"
 "http://www.w3.org/Graphics/SVG/1.1/DTD/svg11.dtd">
<!-- Generated by graphviz version 2.47.0 (20210316.0004)
 -->
<!-- Title: dependencies Pages: 1 -->
<svg width="1292pt" height="284pt"
 viewBox="0.00 0.00 1292.00 284.00" xmlns="http://www.w3.org/2000/svg" xmlns:xlink="http://www.w3.org/1999/xlink">
<g id="graph0" class="graph" transform="scale(1 1) rotate(0) translate(4 280)">
<title>dependencies</title>
<polygon fill="white" stroke="transparent" points="-4,4 -4,-280 1288,-280 1288,4 -4,4"/>
<text text-anchor="start" x="621.01" y="-42.4" font-family="Times-12" font-weight="bold" font-size="14.00">Legend</text>
<polygon fill="#ffffb3" stroke="transparent" points="408,-10 408,-30 428,-30 428,-10 408,-10"/>
<text text-anchor="start" x="431.63" y="-15.4" font-family="Times-12" font-size="14.00"> &#160;Declarations</text>
<polygon fill="#8dd3c7" stroke="transparent" points="521,-10 521,-30 541,-30 541,-10 521,-10"/>
<text text-anchor="start" x="544.73" y="-15.4" font-family="Times-12" font-size="14.00"> &#160;Module</text>
<polygon fill="#80b1d3" stroke="transparent" points="607,-10 607,-30 627,-30 627,-10 607,-10"/>
<text text-anchor="start" x="630.78" y="-15.4" font-family="Times-12" font-size="14.00"> &#160;Bootstrap</text>
<polygon fill="#fdb462" stroke="transparent" points="704,-10 704,-30 724,-30 724,-10 704,-10"/>
<text text-anchor="start" x="727.67" y="-15.4" font-family="Times-12" font-size="14.00"> &#160;Providers</text>
<polygon fill="#fb8072" stroke="transparent" points="800,-10 800,-30 820,-30 820,-10 800,-10"/>
<text text-anchor="start" x="823.73" y="-15.4" font-family="Times-12" font-size="14.00"> &#160;Exports</text>
<g id="clust7" class="cluster">
<title>cluster_AppModule</title>
<polygon fill="none" stroke="black" stroke-dasharray="1,5" points="8,-70 8,-268 976,-268 976,-70 8,-70"/>
</g>
<g id="clust8" class="cluster">
<title>cluster_AppModule_declarations</title>
<polygon fill="none" stroke="black" points="713,-78 713,-130 968,-130 968,-78 713,-78"/>
</g>
<g id="clust11" class="cluster">
<title>cluster_AppModule_imports</title>
<polygon fill="none" stroke="black" points="186,-78 186,-130 705,-130 705,-78 186,-78"/>
</g>
<g id="clust13" class="cluster">
<title>cluster_AppModule_bootstrap</title>
<polygon fill="none" stroke="black" points="472,-208 472,-260 596,-260 596,-208 472,-208"/>
</g>
<g id="clust14" class="cluster">
<title>cluster_AppModule_providers</title>
<polygon fill="none" stroke="black" points="16,-78 16,-130 178,-130 178,-78 16,-78"/>
</g>
<g id="clust21" class="cluster">
<title>cluster_AuthModule</title>
<polygon fill="none" stroke="black" stroke-dasharray="1,5" points="984,-70 984,-195 1276,-195 1276,-70 984,-70"/>
</g>
<g id="clust23" class="cluster">
<title>cluster_AuthModule_imports</title>
<polygon fill="none" stroke="black" points="992,-78 992,-130 1268,-130 1268,-78 992,-78"/>
</g>
<!-- AppComponent -->
<g id="node1" class="node">
<title>AppComponent</title>
<polygon fill="#ffffb3" stroke="black" points="959.94,-122 854.06,-122 854.06,-86 959.94,-86 959.94,-122"/>
<text text-anchor="middle" x="907" y="-99.8" font-family="Times,serif" font-size="14.00">AppComponent</text>
</g>
<!-- AppModule -->
<g id="node3" class="node">
<title>AppModule</title>
<polygon fill="#8dd3c7" stroke="black" points="575.66,-187 572.66,-191 551.66,-191 548.66,-187 492.34,-187 492.34,-151 575.66,-151 575.66,-187"/>
<text text-anchor="middle" x="534" y="-164.8" font-family="Times,serif" font-size="14.00">AppModule</text>
</g>
<!-- AppComponent&#45;&gt;AppModule -->
<g id="edge1" class="edge">
<title>AppComponent&#45;&gt;AppModule</title>
<path fill="none" stroke="black" d="M907,-122.29C907,-144.21 907,-178 907,-178 907,-178 585.7,-178 585.7,-178"/>
<polygon fill="black" stroke="black" points="585.7,-174.5 575.7,-178 585.7,-181.5 585.7,-174.5"/>
</g>
<!-- HomeComponent -->
<g id="node2" class="node">
<title>HomeComponent</title>
<polygon fill="#ffffb3" stroke="black" points="836.55,-122 721.45,-122 721.45,-86 836.55,-86 836.55,-122"/>
<text text-anchor="middle" x="779" y="-99.8" font-family="Times,serif" font-size="14.00">HomeComponent</text>
</g>
<!-- HomeComponent&#45;&gt;AppModule -->
<g id="edge2" class="edge">
<title>HomeComponent&#45;&gt;AppModule</title>
<path fill="none" stroke="black" d="M779,-122.11C779,-141.34 779,-169 779,-169 779,-169 585.84,-169 585.84,-169"/>
<polygon fill="black" stroke="black" points="585.84,-165.5 575.84,-169 585.84,-172.5 585.84,-165.5"/>
</g>
<!-- AppComponent  -->
<g id="node8" class="node">
<title>AppComponent </title>
<polygon fill="#80b1d3" stroke="black" points="588.44,-252 479.56,-252 479.56,-216 588.44,-216 588.44,-252"/>
<text text-anchor="middle" x="534" y="-229.8" font-family="Times,serif" font-size="14.00">AppComponent </text>
</g>
<!-- AppModule&#45;&gt;AppComponent  -->
<g id="edge7" class="edge">
<title>AppModule&#45;&gt;AppComponent </title>
<path fill="none" stroke="black" stroke-dasharray="1,5" d="M534,-187.11C534,-187.11 534,-205.99 534,-205.99"/>
<polygon fill="black" stroke="black" points="530.5,-205.99 534,-215.99 537.5,-205.99 530.5,-205.99"/>
</g>
<!-- ApiModule -->
<g id="node4" class="node">
<title>ApiModule</title>
<polygon fill="#8dd3c7" stroke="black" points="697.05,-122 694.05,-126 673.05,-126 670.05,-122 616.95,-122 616.95,-86 697.05,-86 697.05,-122"/>
<text text-anchor="middle" x="657" y="-99.8" font-family="Times,serif" font-size="14.00">ApiModule</text>
</g>
<!-- ApiModule&#45;&gt;AppModule -->
<g id="edge3" class="edge">
<title>ApiModule&#45;&gt;AppModule</title>
<path fill="none" stroke="black" d="M657,-122.03C657,-138.4 657,-160 657,-160 657,-160 585.99,-160 585.99,-160"/>
<polygon fill="black" stroke="black" points="585.99,-156.5 575.99,-160 585.99,-163.5 585.99,-156.5"/>
</g>
<!-- AppRoutingModule -->
<g id="node5" class="node">
<title>AppRoutingModule</title>
<polygon fill="#8dd3c7" stroke="black" points="598.27,-122 595.27,-126 574.27,-126 571.27,-122 469.73,-122 469.73,-86 598.27,-86 598.27,-122"/>
<text text-anchor="middle" x="534" y="-99.8" font-family="Times,serif" font-size="14.00">AppRoutingModule</text>
</g>
<!-- AppRoutingModule&#45;&gt;AppModule -->
<g id="edge4" class="edge">
<title>AppRoutingModule&#45;&gt;AppModule</title>
<path fill="none" stroke="black" d="M534,-122.11C534,-122.11 534,-140.99 534,-140.99"/>
<polygon fill="black" stroke="black" points="530.5,-140.99 534,-150.99 537.5,-140.99 530.5,-140.99"/>
</g>
<!-- FooterComponent -->
<g id="node6" class="node">
<title>FooterComponent</title>
<polygon fill="#8dd3c7" stroke="black" points="451.88,-122 448.88,-126 427.88,-126 424.88,-122 334.12,-122 334.12,-86 451.88,-86 451.88,-122"/>
<text text-anchor="middle" x="393" y="-99.8" font-family="Times,serif" font-size="14.00">FooterComponent</text>
</g>
<!-- FooterComponent&#45;&gt;AppModule -->
<g id="edge5" class="edge">
<title>FooterComponent&#45;&gt;AppModule</title>
<path fill="none" stroke="black" d="M393,-122.03C393,-138.4 393,-160 393,-160 393,-160 482.08,-160 482.08,-160"/>
<polygon fill="black" stroke="black" points="482.08,-163.5 492.08,-160 482.08,-156.5 482.08,-163.5"/>
</g>
<!-- HeaderComponent -->
<g id="node7" class="node">
<title>HeaderComponent</title>
<polygon fill="#8dd3c7" stroke="black" points="315.74,-122 312.74,-126 291.74,-126 288.74,-122 194.26,-122 194.26,-86 315.74,-86 315.74,-122"/>
<text text-anchor="middle" x="255" y="-99.8" font-family="Times,serif" font-size="14.00">HeaderComponent</text>
</g>
<!-- HeaderComponent&#45;&gt;AppModule -->
<g id="edge6" class="edge">
<title>HeaderComponent&#45;&gt;AppModule</title>
<path fill="none" stroke="black" d="M255,-122.11C255,-141.34 255,-169 255,-169 255,-169 482.23,-169 482.23,-169"/>
<polygon fill="black" stroke="black" points="482.23,-172.5 492.23,-169 482.23,-165.5 482.23,-172.5"/>
</g>
<!-- AuthInterceptor -->
<g id="node9" class="node">
<title>AuthInterceptor</title>
<ellipse fill="#fdb462" stroke="black" cx="97" cy="-104" rx="72.91" ry="18"/>
<text text-anchor="middle" x="97" y="-99.8" font-family="Times,serif" font-size="14.00">AuthInterceptor</text>
</g>
<!-- AuthInterceptor&#45;&gt;AppModule -->
<g id="edge8" class="edge">
<title>AuthInterceptor&#45;&gt;AppModule</title>
<path fill="none" stroke="black" d="M97,-122.29C97,-144.21 97,-178 97,-178 97,-178 482.1,-178 482.1,-178"/>
<polygon fill="black" stroke="black" points="482.1,-181.5 492.1,-178 482.1,-174.5 482.1,-181.5"/>
</g>
<!-- LoginComponent -->
<g id="node10" class="node">
<title>LoginComponent</title>
<polygon fill="#8dd3c7" stroke="black" points="1260.28,-122 1257.28,-126 1236.28,-126 1233.28,-122 1145.72,-122 1145.72,-86 1260.28,-86 1260.28,-122"/>
<text text-anchor="middle" x="1203" y="-99.8" font-family="Times,serif" font-size="14.00">LoginComponent</text>
</g>
<!-- AuthModule -->
<g id="node12" class="node">
<title>AuthModule</title>
<polygon fill="#8dd3c7" stroke="black" points="1176.55,-187 1173.55,-191 1152.55,-191 1149.55,-187 1089.45,-187 1089.45,-151 1176.55,-151 1176.55,-187"/>
<text text-anchor="middle" x="1133" y="-164.8" font-family="Times,serif" font-size="14.00">AuthModule</text>
</g>
<!-- LoginComponent&#45;&gt;AuthModule -->
<g id="edge9" class="edge">
<title>LoginComponent&#45;&gt;AuthModule</title>
<path fill="none" stroke="black" d="M1161.19,-122.11C1161.19,-122.11 1161.19,-140.99 1161.19,-140.99"/>
<polygon fill="black" stroke="black" points="1157.69,-140.99 1161.19,-150.99 1164.69,-140.99 1157.69,-140.99"/>
</g>
<!-- RegisterComponent -->
<g id="node11" class="node">
<title>RegisterComponent</title>
<polygon fill="#8dd3c7" stroke="black" points="1127.98,-122 1124.98,-126 1103.98,-126 1100.98,-122 1000.02,-122 1000.02,-86 1127.98,-86 1127.98,-122"/>
<text text-anchor="middle" x="1064" y="-99.8" font-family="Times,serif" font-size="14.00">RegisterComponent</text>
</g>
<!-- RegisterComponent&#45;&gt;AuthModule -->
<g id="edge10" class="edge">
<title>RegisterComponent&#45;&gt;AuthModule</title>
<path fill="none" stroke="black" d="M1108.61,-122.11C1108.61,-122.11 1108.61,-140.99 1108.61,-140.99"/>
<polygon fill="black" stroke="black" points="1105.11,-140.99 1108.61,-150.99 1112.11,-140.99 1105.11,-140.99"/>
</g>
</g>
</svg>
